<svg width="54" height="56" viewBox="0 0 54 56" fill="none" xmlns="http://www.w3.org/2000/svg">
<path fill-rule="evenodd" clip-rule="evenodd" d="M31.9546 0.929016C31.5717 0.929016 31.2161 1.01397 30.8878 1.12723C31.5854 1.60862 31.9683 2.24575 32.1598 2.96782C32.1735 3.06693 32.2008 3.13772 32.2145 3.23682C32.2282 3.32178 32.2419 3.40673 32.2419 3.49168C32.2966 4.73761 31.9273 4.89335 31.6674 5.62959C31.2708 6.5782 31.3802 7.5976 31.8589 8.41879C31.8999 8.51789 31.9546 8.63116 32.023 8.73027C31.5033 5.1482 34.3891 4.61019 34.9225 3.49168C34.9636 2.51475 34.184 1.86347 33.5685 1.4104C32.9804 1.04228 32.447 0.929016 31.9546 0.929016ZM36.3039 1.73604C36.2492 2.06168 36.2902 1.97673 36.2766 2.14664C36.2629 2.2599 36.2629 2.40149 36.2493 2.51475C36.2219 2.62802 36.1945 2.74128 36.1535 2.85456C36.1262 2.96782 36.0851 3.08109 36.0441 3.19435C35.9894 3.30762 35.9484 3.40673 35.8937 3.51999C35.8526 3.57665 35.8253 3.63326 35.7842 3.6899C35.7569 3.73237 35.7295 3.77485 35.7022 3.81732C35.6338 3.91643 35.5654 4.01554 35.497 4.10049C35.415 4.18544 35.3466 4.28454 35.2508 4.35534V4.36952C35.1688 4.44031 35.0867 4.52526 34.991 4.59605C34.7038 4.82258 34.3755 4.99248 34.0746 5.20486C33.9789 5.27565 33.8831 5.33228 33.8011 5.41723C33.7053 5.48802 33.6233 5.55881 33.5412 5.64377C33.4455 5.72871 33.3771 5.81367 33.295 5.91278C33.2266 5.99773 33.1446 6.09683 33.0899 6.19594C33.0215 6.29505 32.9531 6.39416 32.8984 6.49327C32.8437 6.60653 32.8027 6.70564 32.7479 6.81891C32.7069 6.93217 32.6659 7.03128 32.6385 7.14455C32.5975 7.27197 32.5701 7.38524 32.5428 7.49851C32.5291 7.55517 32.5291 7.62593 32.5155 7.68257C32.5017 7.73922 32.5017 7.79583 32.4881 7.85247C32.4881 7.96573 32.4744 8.09316 32.4744 8.20642C32.4744 8.29138 32.4744 8.37633 32.4881 8.46128C32.4881 8.57454 32.5018 8.68781 32.5292 8.81523C32.5429 8.9285 32.5702 9.04177 32.5975 9.15504C32.6386 9.2683 32.6659 9.38157 32.707 9.49483C32.7343 9.56563 32.7753 9.63642 32.8027 9.69305L29.657 8.43296C29.1236 8.27722 28.6039 8.13564 28.0705 8.00821C27.7833 7.93742 27.496 7.86663 27.2088 7.79583C26.3882 7.62593 25.5539 7.49851 24.7196 7.41356C24.6923 7.41356 24.6786 7.39938 24.6512 7.39938C23.8306 7.31444 23.0237 7.27196 22.2031 7.27196C21.6013 7.27196 20.9995 7.30025 20.4114 7.34275C19.5771 7.39941 18.7428 7.51265 17.9085 7.65423C17.7033 7.68253 17.4982 7.72503 17.293 7.7675C16.869 7.85245 16.4587 7.95156 16.0621 8.05067C15.8569 8.10733 15.6518 8.16394 15.4466 8.22057C15.2415 8.30552 15.05 8.40463 14.8585 8.48958C14.7081 8.56037 14.5576 8.63116 14.4072 8.70195C14.3798 8.71613 14.3525 8.71613 14.3388 8.73025C14.202 8.80104 14.0789 8.85767 13.9558 8.92847C13.9148 8.94264 13.8875 8.95676 13.8601 8.97094C13.7097 9.04173 13.5592 9.12668 13.4361 9.19747C13.3404 9.23995 13.2446 9.29658 13.1626 9.33906C13.1215 9.36735 13.0668 9.39571 13.0395 9.40985C12.9164 9.48064 12.7933 9.55143 12.6839 9.62223C12.5608 9.69302 12.4514 9.7638 12.3556 9.83459C12.2599 9.90539 12.1642 9.96202 12.0821 10.0328C12.0684 10.047 12.0548 10.047 12.0411 10.0611C11.959 10.1178 11.8633 10.1885 11.7812 10.2593C11.7812 10.2593 11.7675 10.2735 11.7539 10.2876C11.6855 10.3443 11.6171 10.4009 11.5487 10.4575C11.5214 10.4717 11.494 10.5 11.4667 10.5142C11.3983 10.5708 11.3299 10.6416 11.2615 10.6982C11.2478 10.7265 11.2205 10.7407 11.2068 10.7549C11.1247 10.8398 11.0427 10.9106 10.9606 10.9956C10.9469 10.9956 10.9469 11.0098 10.9333 11.0239C10.8512 11.0947 10.7691 11.1796 10.6871 11.2646C10.6734 11.2787 10.6734 11.2929 10.6597 11.2929C10.5914 11.3637 10.523 11.4345 10.4546 11.5194C10.4272 11.5477 10.3862 11.5761 10.3588 11.6043C10.2905 11.6893 10.2084 11.7742 10.1263 11.8592C10.1126 11.8875 10.0853 11.9017 10.0716 11.93C9.96219 12.0433 9.86645 12.1565 9.75704 12.2698C9.74334 12.284 9.7297 12.2981 9.71601 12.3123C9.49717 12.553 9.26466 12.7936 9.01848 13.006C8.77229 13.2326 8.51243 13.4449 8.25257 13.629C7.97903 13.8272 7.71917 13.9971 7.43195 14.167C7.15841 14.3227 6.87119 14.4643 6.5703 14.5918C6.28308 14.7192 5.98219 14.8325 5.6813 14.9316C5.10687 15.059 4.51876 15.2997 4.01271 15.3421C3.90329 15.3421 3.7802 15.3704 3.67079 15.3846C3.54769 15.4129 3.43828 15.4413 3.32886 15.4696C3.21945 15.512 3.11003 15.5545 3.00061 15.597C2.8912 15.6395 2.78179 15.6961 2.67237 15.7527C2.57663 15.8235 2.46722 15.8802 2.37147 15.951C2.27574 16.0217 2.18 16.1067 2.09793 16.1916C2.0022 16.2624 1.90646 16.3616 1.8244 16.4465C1.74233 16.5456 1.66027 16.6306 1.59189 16.7297C1.5235 16.8429 1.44144 16.942 1.38673 17.0553C1.31835 17.1544 1.24997 17.2677 1.19525 17.3809C1.14052 17.5084 1.08584 17.6216 1.04481 17.7491C1.00378 17.8623 0.962747 17.9898 0.921716 18.1172C0.894383 18.2305 0.866986 18.3437 0.853332 18.457C0.853332 18.4712 0.839634 18.4853 0.839634 18.4995C0.812302 18.6269 0.812302 18.7968 0.798603 18.8817C0.784905 18.9809 0.771271 19.0658 0.771271 19.1649C0.771271 19.2216 0.771271 19.2923 0.784969 19.349C0.798667 19.4481 0.812301 19.533 0.839698 19.618C0.867031 19.7029 0.894428 19.7879 0.935434 19.8728V19.887C0.976465 19.972 1.03118 20.0569 1.08588 20.1419C1.14061 20.2268 1.1953 20.3118 1.26368 20.3967C1.33207 20.4675 1.41413 20.5524 1.49619 20.6232C1.57825 20.7082 1.66032 20.779 1.75605 20.8498C2.0843 21.1471 2.16636 21.2462 2.59035 21.4727C2.65873 21.5152 2.72712 21.5435 2.80918 21.586C2.82288 21.586 2.83652 21.6002 2.85021 21.6002C2.85021 21.6285 2.85021 21.6427 2.86391 21.671C2.87761 21.7843 2.90495 21.8975 2.9323 22.0108C2.95963 22.1382 3.00069 22.2515 3.04172 22.3506C3.08275 22.4355 3.1101 22.5205 3.15113 22.6054C3.16483 22.6337 3.17847 22.6621 3.19216 22.6762C3.24689 22.7895 3.30158 22.8886 3.35628 22.9877C3.42467 23.0868 3.49306 23.1859 3.56144 23.285C3.62982 23.37 3.71188 23.4691 3.79395 23.554C3.87601 23.639 3.95807 23.7098 4.05381 23.7947C4.05381 23.7947 4.06751 23.8089 4.08115 23.8089C4.16321 23.8797 4.24527 23.9505 4.32733 24.0071C4.42307 24.0779 4.51881 24.1346 4.62822 24.1912C4.72397 24.2479 4.83338 24.3045 4.94279 24.3469C5.02486 24.3894 5.12059 24.4177 5.21633 24.4461C5.23003 24.4603 5.24367 24.4603 5.27106 24.4744C5.32579 24.4886 5.39415 24.5026 5.44886 24.5168C5.40783 25.2814 5.39413 26.0034 5.50359 26.2583C5.62668 26.5415 6.22847 25.6778 6.83025 24.6867C6.74819 25.6637 6.69348 26.8105 6.83025 27.1503C6.9807 27.5042 7.80132 26.3999 8.51252 25.1823C18.2095 22.8603 27.0585 29.7979 27.9885 39.5955C27.8107 38.0664 25.9917 37.2169 25.1574 37.4292C24.7471 38.477 24.0496 39.822 22.928 40.6573C23.0238 39.7229 22.9828 38.7601 22.7913 37.8257C22.4904 39.1282 21.9023 40.3459 21.0953 41.3936C19.796 41.4927 18.4967 40.8414 17.8128 39.8645C17.7581 39.822 17.7445 39.737 17.7034 39.6804C17.6624 39.5813 17.6214 39.4822 17.594 39.3831C17.553 39.284 17.5256 39.1849 17.512 39.0858C17.4983 38.9867 17.4983 38.8875 17.4983 38.7743C17.4983 38.7035 17.4983 38.6327 17.4983 38.5619C17.512 38.4628 17.5393 38.3637 17.5666 38.2646C17.594 38.1655 17.6214 38.0664 17.6624 37.9673C17.7171 37.8681 17.7581 37.769 17.8265 37.6699C18.059 36.9903 18.059 36.4382 17.635 36.1125C17.553 36.0559 17.4709 36.0134 17.3752 35.9709C17.3204 35.9567 17.2521 35.9284 17.1974 35.9143C17.1563 35.9001 17.129 35.886 17.088 35.8718C16.9922 35.8435 16.8965 35.8151 16.8007 35.801C16.705 35.7727 16.6093 35.7585 16.5135 35.7585C16.4178 35.7443 16.3084 35.7302 16.2126 35.7302C16.1442 35.7302 16.0759 35.7444 16.0075 35.7444C15.8981 35.7444 15.8023 35.7586 15.7066 35.7869C15.6108 35.8011 15.5151 35.8152 15.4194 35.8435C15.3236 35.8718 15.2279 35.9002 15.1321 35.9427C15.0364 35.9851 14.9543 36.0276 14.8586 36.0701C14.7765 36.1126 14.6945 36.1692 14.5987 36.2117C11.412 38.3637 13.3131 43.4041 15.4877 44.8624C14.6671 45.0181 13.8328 45.2022 13.6003 45.3863C13.5866 45.4004 13.573 45.4146 13.573 45.4146C14.1611 45.7827 14.7766 46.0942 15.4194 46.3632C16.2947 46.6605 17.2247 46.9295 17.6351 47.0428V47.0569C18.7702 47.2976 19.9191 47.3826 21.0816 47.3118C27.1405 46.8729 32.1053 42.1015 33.008 35.8152C33.0353 35.9426 33.0627 36.0559 33.09 36.1833C33.1311 36.4382 33.1858 36.7072 33.2131 36.9762V36.9904C33.2404 37.1178 33.2541 37.2452 33.2678 37.3585V37.4152C33.2816 37.5426 33.2952 37.67 33.2952 37.7833C33.3089 37.939 33.3225 38.0948 33.3225 38.2505V38.477C33.3225 38.5478 33.3362 38.6328 33.3362 38.7036C33.3362 38.7885 33.3225 38.8735 33.3225 38.9584V39.1566C33.3225 39.2558 33.3088 39.3407 33.3088 39.4398C33.3088 39.4965 33.3088 39.5531 33.2951 39.6239C33.2951 39.723 33.2814 39.8221 33.2814 39.9354C33.2677 39.9778 33.2677 40.0203 33.2677 40.0628C33.254 40.1761 33.2404 40.2752 33.2267 40.3884C33.2267 40.4309 33.2267 40.4734 33.213 40.5159C33.1992 40.6574 33.1719 40.7849 33.1582 40.9264V40.9406V40.9548C33.1309 41.0822 33.1035 41.2238 33.0762 41.3512V41.3937C33.0488 41.5211 33.0214 41.6486 32.9941 41.776C32.9941 41.7902 32.9804 41.8185 32.9804 41.8326C32.9531 41.9601 32.9257 42.0875 32.8847 42.2149V42.2574C32.8437 42.399 32.8026 42.5264 32.7753 42.6538C32.7616 42.668 32.7616 42.6821 32.7616 42.6821C32.7205 42.8237 32.6795 42.9653 32.6385 43.1069C32.5838 43.2485 32.5427 43.3759 32.488 43.5175C32.4333 43.6591 32.3923 43.8006 32.3376 43.9281C32.2829 44.0697 32.2282 44.1971 32.1735 44.3387H32.1598C32.105 44.4661 32.0503 44.6077 31.9819 44.7351C31.9682 44.7776 31.9546 44.8059 31.9409 44.8342C31.9272 44.8484 31.9272 44.8625 31.9136 44.8767C31.0246 46.7314 29.7116 48.3596 28.0704 49.6339C27.9609 49.7047 27.8515 49.7896 27.7421 49.8746C27.7148 49.9029 27.6737 49.917 27.6464 49.9454C27.5506 50.0161 27.4549 50.0869 27.3455 50.1577L27.3865 50.2427H27.4002C27.5917 50.2144 27.7832 50.186 27.9746 50.1577H27.9883C28.3439 50.1011 28.6995 50.0303 29.0551 49.9595C29.1509 49.9453 29.2603 49.917 29.356 49.8887C29.4244 49.8745 29.4791 49.8604 29.5475 49.8463C29.6432 49.8321 29.739 49.8038 29.8347 49.7896C29.9168 49.7613 29.9989 49.7471 30.0809 49.7188C31.4486 49.379 32.7753 48.9118 34.0472 48.3596C31.8726 51.432 28.9594 53.9097 25.5538 55.5379C27.1267 55.4246 28.6995 55.1556 30.2177 54.7025C35.7295 53.0177 40.366 49.1808 43.1424 44.013C42.5816 47.2836 41.3234 50.3984 39.4633 53.1168C40.79 52.2107 42.0072 51.1629 43.1151 49.9736C46.1787 46.6606 48.1892 42.4556 48.8731 37.9391C49.3381 40.1761 49.4748 42.4839 49.2697 44.7634C59.1445 30.5059 50.0903 15.7246 46.3018 11.8311C46.2881 11.8028 46.2745 11.7886 46.2745 11.7603C46.2607 11.7745 46.2607 11.7745 46.2607 11.7886C46.2607 11.7744 46.2607 11.7744 46.247 11.7603C46.247 11.9302 46.2334 12.1001 46.2197 12.27C46.1787 12.5956 46.1377 12.9071 46.0829 13.2186C46.0146 13.5301 45.9325 13.8415 45.8504 14.153C45.7547 14.4504 45.6453 14.7618 45.5222 15.0592C45.3991 15.3423 45.2623 15.6397 45.1119 15.9228C44.9614 16.1918 44.7973 16.475 44.6195 16.7299C44.4417 16.9989 44.2502 17.2537 44.0587 17.4944C43.8536 17.7493 43.6348 17.9758 43.4159 18.2023C43.2792 18.3297 43.1561 18.443 43.0193 18.5563C42.9099 18.6554 42.8141 18.7403 42.7047 18.8394C42.4585 19.0377 42.2124 19.2217 41.9388 19.3916C41.679 19.5615 41.4054 19.7314 41.1319 19.873C40.8447 20.0146 40.5574 20.142 40.2702 20.2694C39.983 20.3827 39.6821 20.4818 39.3812 20.5668C39.0803 20.6517 38.7658 20.7225 38.4649 20.7791C38.1503 20.8358 37.8357 20.8641 37.5348 20.8924C37.316 20.9066 37.0972 20.9207 36.8783 20.9207C36.5638 20.9207 36.2492 20.8924 35.9483 20.8641C35.6337 20.8358 35.3192 20.7933 35.0183 20.7225C34.7037 20.6658 34.4028 20.5809 34.1019 20.4818H34.0882C34.3891 20.4535 34.69 20.4251 34.9909 20.3685C35.3055 20.3118 35.6064 20.2411 35.9073 20.1561C36.2082 20.0712 36.5091 19.9721 36.7963 19.8588C37.0972 19.7455 37.3844 19.604 37.6579 19.4624C37.9451 19.3208 38.205 19.165 38.4785 18.9951C38.7384 18.8111 38.9983 18.627 39.2444 18.4288C39.4906 18.2306 39.7231 18.0182 39.942 17.7917C40.1745 17.5793 40.3796 17.3386 40.5848 17.0979C40.7899 16.8431 40.9814 16.5882 41.1592 16.3334C41.1866 16.2909 41.2139 16.2343 41.2413 16.1918C41.378 15.9653 41.5148 15.7387 41.6379 15.5122C41.7884 15.229 41.9251 14.9459 42.0482 14.6485C42.1713 14.3512 42.2807 14.0539 42.3765 13.7424C42.4722 13.4451 42.5406 13.1336 42.609 12.8221C42.6637 12.4965 42.7184 12.185 42.7457 11.8735C42.7731 11.5479 42.8005 11.2222 42.8005 10.9107C42.8005 10.6842 42.7868 10.4577 42.7731 10.2311C42.7458 9.90549 42.7048 9.594 42.6637 9.28252C42.609 8.95688 42.5406 8.6454 42.4586 8.33391C42.3628 8.03659 42.2671 7.7251 42.1577 7.42778C42.0483 7.13045 41.9115 6.83312 41.7747 6.54996C41.6243 6.26679 41.4738 5.98362 41.3097 5.71462C41.1319 5.44561 40.9541 5.19076 40.7626 4.93591C40.5575 4.69521 40.3523 4.45452 40.1335 4.21383C40.0241 4.10057 39.901 3.97314 39.7779 3.85988C39.1624 3.36433 38.5196 2.8971 37.8768 2.47236C37.7811 2.4157 37.699 2.37325 37.6033 2.33077C37.1519 2.03345 36.7279 1.87762 36.3039 1.73604Z" fill="black"/>
</svg>
