<svg width="25" height="41" viewBox="0 0 25 41" fill="none" xmlns="http://www.w3.org/2000/svg">
<path fill-rule="evenodd" clip-rule="evenodd" d="M24.3418 0.673828L19.6087 0.967828L19.3788 6.52233C19.3707 6.72533 19.5282 6.89566 19.7311 6.90499C19.8163 6.90849 19.8992 6.88283 19.9668 6.83149L22.1228 5.19466L23.9452 6.63083C24.1038 6.75683 24.336 6.72999 24.4608 6.57133C24.5145 6.50249 24.5425 6.41733 24.5402 6.32983L24.3441 0.674995L24.3418 0.673828ZM20.6575 19.2693C19.793 19.9425 13.3343 20.401 13.3343 19.4432C13.472 15.7857 11.8351 15.6258 10.924 15.6258C10.0618 15.6258 8.60582 15.886 8.60582 17.846C8.60582 19.8422 10.7326 20.9692 13.2293 22.2922C16.7748 24.1717 21.0693 26.4478 21.0693 32.1703C21.0693 37.6583 16.6103 40.687 10.9263 40.687C5.05915 40.687 -0.0695161 38.3128 0.509151 30.0832C0.736651 29.1183 8.19748 29.3482 8.19748 30.0832C8.10415 33.4793 8.87882 34.478 10.8342 34.478C12.3357 34.478 13.017 33.6497 13.017 32.2578C13.017 30.1485 10.8027 28.9037 8.25232 27.4733C4.80015 25.5355 0.737818 23.2547 0.737818 18.0187C0.737818 12.7955 4.32998 9.31183 10.7431 9.31183C17.1563 9.31183 20.6575 12.743 20.6575 19.2693Z" fill="white"/>
</svg>
